<mxfile host="app.diagrams.net" modified="2024-04-02T03:07:51.019Z" agent="Mozilla/5.0 (Windows NT 10.0; Win64; x64) AppleWebKit/537.36 (KHTML, like Gecko) Chrome/123.0.0.0 Safari/537.36" etag="YDkgcx-ovcwWJlSEymRM" version="24.2.1" type="device">
  <diagram id="C5RBs43oDa-KdzZeNtuy" name="Page-1">
    <mxGraphModel dx="1313" dy="577" grid="1" gridSize="10" guides="1" tooltips="1" connect="1" arrows="1" fold="1" page="1" pageScale="1" pageWidth="827" pageHeight="1169" math="0" shadow="0">
      <root>
        <mxCell id="WIyWlLk6GJQsqaUBKTNV-0" />
        <mxCell id="WIyWlLk6GJQsqaUBKTNV-1" parent="WIyWlLk6GJQsqaUBKTNV-0" />
        <mxCell id="IJf_oxvMi_yI0q4zsniB-27" value="Passengers" style="text;strokeColor=none;fillColor=none;html=1;fontSize=24;fontStyle=1;verticalAlign=middle;align=center;" parent="WIyWlLk6GJQsqaUBKTNV-1" vertex="1">
          <mxGeometry x="200" y="1290" width="100" height="40" as="geometry" />
        </mxCell>
        <mxCell id="IJf_oxvMi_yI0q4zsniB-41" value="" style="shape=table;html=1;whiteSpace=wrap;startSize=0;container=1;collapsible=0;childLayout=tableLayout;columnLines=0;rowLines=0;fontSize=16;strokeColor=default;" parent="WIyWlLk6GJQsqaUBKTNV-1" vertex="1">
          <mxGeometry x="170" y="1330" width="180" height="40" as="geometry" />
        </mxCell>
        <mxCell id="IJf_oxvMi_yI0q4zsniB-42" value="" style="shape=tableRow;horizontal=0;startSize=0;swimlaneHead=0;swimlaneBody=0;top=0;left=0;bottom=0;right=0;collapsible=0;dropTarget=0;fillColor=none;points=[[0,0.5],[1,0.5]];portConstraint=eastwest;fontSize=16;strokeColor=inherit;" parent="IJf_oxvMi_yI0q4zsniB-41" vertex="1">
          <mxGeometry width="180" height="40" as="geometry" />
        </mxCell>
        <mxCell id="IJf_oxvMi_yI0q4zsniB-43" value="&lt;u&gt;DOB&lt;/u&gt;" style="shape=partialRectangle;html=1;whiteSpace=wrap;connectable=0;fillColor=none;top=0;left=0;bottom=0;right=0;overflow=hidden;fontSize=12;strokeColor=inherit;" parent="IJf_oxvMi_yI0q4zsniB-42" vertex="1">
          <mxGeometry width="60" height="40" as="geometry">
            <mxRectangle width="60" height="40" as="alternateBounds" />
          </mxGeometry>
        </mxCell>
        <mxCell id="IJf_oxvMi_yI0q4zsniB-44" value="&lt;u&gt;Name&lt;/u&gt;" style="shape=partialRectangle;html=1;whiteSpace=wrap;connectable=0;fillColor=none;top=0;left=0;bottom=0;right=0;overflow=hidden;fontSize=12;strokeColor=inherit;" parent="IJf_oxvMi_yI0q4zsniB-42" vertex="1">
          <mxGeometry x="60" width="60" height="40" as="geometry">
            <mxRectangle width="60" height="40" as="alternateBounds" />
          </mxGeometry>
        </mxCell>
        <mxCell id="IuTOKo6c5WQzJCZQz2z7-27" value="DID" style="shape=partialRectangle;html=1;whiteSpace=wrap;connectable=0;fillColor=none;top=0;left=0;bottom=0;right=0;overflow=hidden;fontSize=12;strokeColor=inherit;" parent="IJf_oxvMi_yI0q4zsniB-42" vertex="1">
          <mxGeometry x="120" width="60" height="40" as="geometry">
            <mxRectangle width="60" height="40" as="alternateBounds" />
          </mxGeometry>
        </mxCell>
        <mxCell id="IuTOKo6c5WQzJCZQz2z7-28" value="" style="endArrow=classic;html=1;rounded=0;entryX=0.167;entryY=1.25;entryDx=0;entryDy=0;entryPerimeter=0;exitX=0.935;exitY=0.995;exitDx=0;exitDy=0;exitPerimeter=0;" parent="IJf_oxvMi_yI0q4zsniB-41" source="IJf_oxvMi_yI0q4zsniB-42" target="IJf_oxvMi_yI0q4zsniB-42" edge="1">
          <mxGeometry width="50" height="50" relative="1" as="geometry">
            <mxPoint x="170" y="70" as="sourcePoint" />
            <mxPoint x="30" y="60" as="targetPoint" />
            <Array as="points">
              <mxPoint x="168" y="70" />
              <mxPoint x="30" y="70" />
            </Array>
          </mxGeometry>
        </mxCell>
        <mxCell id="IJf_oxvMi_yI0q4zsniB-60" value="Starships" style="text;strokeColor=none;fillColor=none;html=1;fontSize=24;fontStyle=1;verticalAlign=middle;align=center;" parent="WIyWlLk6GJQsqaUBKTNV-1" vertex="1">
          <mxGeometry x="40" y="1440" width="100" height="40" as="geometry" />
        </mxCell>
        <mxCell id="IJf_oxvMi_yI0q4zsniB-80" value="Pilots" style="text;strokeColor=none;fillColor=none;html=1;fontSize=24;fontStyle=1;verticalAlign=middle;align=center;" parent="WIyWlLk6GJQsqaUBKTNV-1" vertex="1">
          <mxGeometry x="560" y="1550" width="100" height="40" as="geometry" />
        </mxCell>
        <mxCell id="IJf_oxvMi_yI0q4zsniB-81" value="" style="shape=table;html=1;whiteSpace=wrap;startSize=0;container=1;collapsible=0;childLayout=tableLayout;columnLines=0;rowLines=0;fontSize=16;strokeColor=default;" parent="WIyWlLk6GJQsqaUBKTNV-1" vertex="1">
          <mxGeometry x="560" y="1590" width="500" height="40" as="geometry" />
        </mxCell>
        <mxCell id="IJf_oxvMi_yI0q4zsniB-82" value="" style="shape=tableRow;horizontal=0;startSize=0;swimlaneHead=0;swimlaneBody=0;top=0;left=0;bottom=0;right=0;collapsible=0;dropTarget=0;fillColor=none;points=[[0,0.5],[1,0.5]];portConstraint=eastwest;fontSize=16;strokeColor=inherit;" parent="IJf_oxvMi_yI0q4zsniB-81" vertex="1">
          <mxGeometry width="500" height="40" as="geometry" />
        </mxCell>
        <mxCell id="IJf_oxvMi_yI0q4zsniB-83" value="&lt;u&gt;Name&lt;/u&gt;" style="shape=partialRectangle;html=1;whiteSpace=wrap;connectable=0;fillColor=none;top=0;left=0;bottom=0;right=0;overflow=hidden;fontSize=12;strokeColor=inherit;" parent="IJf_oxvMi_yI0q4zsniB-82" vertex="1">
          <mxGeometry width="56" height="40" as="geometry">
            <mxRectangle width="56" height="40" as="alternateBounds" />
          </mxGeometry>
        </mxCell>
        <mxCell id="IJf_oxvMi_yI0q4zsniB-84" value="&lt;u&gt;DOB&lt;/u&gt;" style="shape=partialRectangle;html=1;whiteSpace=wrap;connectable=0;fillColor=none;top=0;left=0;bottom=0;right=0;overflow=hidden;fontSize=12;strokeColor=inherit;" parent="IJf_oxvMi_yI0q4zsniB-82" vertex="1">
          <mxGeometry x="56" width="114" height="40" as="geometry">
            <mxRectangle width="114" height="40" as="alternateBounds" />
          </mxGeometry>
        </mxCell>
        <mxCell id="IJf_oxvMi_yI0q4zsniB-85" value="Flight_Count" style="shape=partialRectangle;html=1;whiteSpace=wrap;connectable=0;fillColor=none;top=0;left=0;bottom=0;right=0;overflow=hidden;fontSize=12;strokeColor=inherit;" parent="IJf_oxvMi_yI0q4zsniB-82" vertex="1">
          <mxGeometry x="170" width="90" height="40" as="geometry">
            <mxRectangle width="90" height="40" as="alternateBounds" />
          </mxGeometry>
        </mxCell>
        <mxCell id="IJf_oxvMi_yI0q4zsniB-86" value="Years_of_Service" style="shape=partialRectangle;html=1;whiteSpace=wrap;connectable=0;fillColor=none;top=0;left=0;bottom=0;right=0;overflow=hidden;fontSize=12;strokeColor=inherit;" parent="IJf_oxvMi_yI0q4zsniB-82" vertex="1">
          <mxGeometry x="260" width="120" height="40" as="geometry">
            <mxRectangle width="120" height="40" as="alternateBounds" />
          </mxGeometry>
        </mxCell>
        <mxCell id="IuTOKo6c5WQzJCZQz2z7-19" value="TID" style="shape=partialRectangle;html=1;whiteSpace=wrap;connectable=0;fillColor=none;top=0;left=0;bottom=0;right=0;overflow=hidden;fontSize=12;strokeColor=inherit;" parent="IJf_oxvMi_yI0q4zsniB-82" vertex="1">
          <mxGeometry x="380" width="120" height="40" as="geometry">
            <mxRectangle width="120" height="40" as="alternateBounds" />
          </mxGeometry>
        </mxCell>
        <mxCell id="IJf_oxvMi_yI0q4zsniB-89" value="Planets" style="text;strokeColor=none;fillColor=none;html=1;fontSize=24;fontStyle=1;verticalAlign=middle;align=center;" parent="WIyWlLk6GJQsqaUBKTNV-1" vertex="1">
          <mxGeometry x="50" y="1550" width="100" height="40" as="geometry" />
        </mxCell>
        <mxCell id="IJf_oxvMi_yI0q4zsniB-90" value="" style="shape=table;html=1;whiteSpace=wrap;startSize=0;container=1;collapsible=0;childLayout=tableLayout;columnLines=0;rowLines=0;fontSize=16;strokeColor=default;" parent="WIyWlLk6GJQsqaUBKTNV-1" vertex="1">
          <mxGeometry x="40" y="1590" width="470" height="40" as="geometry" />
        </mxCell>
        <mxCell id="IJf_oxvMi_yI0q4zsniB-91" value="" style="shape=tableRow;horizontal=0;startSize=0;swimlaneHead=0;swimlaneBody=0;top=0;left=0;bottom=0;right=0;collapsible=0;dropTarget=0;fillColor=none;points=[[0,0.5],[1,0.5]];portConstraint=eastwest;fontSize=16;strokeColor=inherit;" parent="IJf_oxvMi_yI0q4zsniB-90" vertex="1">
          <mxGeometry width="470" height="40" as="geometry" />
        </mxCell>
        <mxCell id="IJf_oxvMi_yI0q4zsniB-92" value="&lt;u&gt;Planet Name&lt;/u&gt;" style="shape=partialRectangle;html=1;whiteSpace=wrap;connectable=0;fillColor=none;top=0;left=0;bottom=0;right=0;overflow=hidden;fontSize=12;strokeColor=inherit;" parent="IJf_oxvMi_yI0q4zsniB-91" vertex="1">
          <mxGeometry width="110" height="40" as="geometry">
            <mxRectangle width="110" height="40" as="alternateBounds" />
          </mxGeometry>
        </mxCell>
        <mxCell id="IJf_oxvMi_yI0q4zsniB-93" value="&lt;u&gt;Starship Name&lt;/u&gt;" style="shape=partialRectangle;html=1;whiteSpace=wrap;connectable=0;fillColor=none;top=0;left=0;bottom=0;right=0;overflow=hidden;fontSize=12;strokeColor=inherit;" parent="IJf_oxvMi_yI0q4zsniB-91" vertex="1">
          <mxGeometry x="110" width="120" height="40" as="geometry">
            <mxRectangle width="120" height="40" as="alternateBounds" />
          </mxGeometry>
        </mxCell>
        <mxCell id="IJf_oxvMi_yI0q4zsniB-94" value="Climate_Type" style="shape=partialRectangle;html=1;whiteSpace=wrap;connectable=0;fillColor=none;top=0;left=0;bottom=0;right=0;overflow=hidden;fontSize=12;strokeColor=inherit;" parent="IJf_oxvMi_yI0q4zsniB-91" vertex="1">
          <mxGeometry x="230" width="120" height="40" as="geometry">
            <mxRectangle width="120" height="40" as="alternateBounds" />
          </mxGeometry>
        </mxCell>
        <mxCell id="IuTOKo6c5WQzJCZQz2z7-21" value="PID" style="shape=partialRectangle;html=1;whiteSpace=wrap;connectable=0;fillColor=none;top=0;left=0;bottom=0;right=0;overflow=hidden;fontSize=12;strokeColor=inherit;" parent="IJf_oxvMi_yI0q4zsniB-91" vertex="1">
          <mxGeometry x="350" width="120" height="40" as="geometry">
            <mxRectangle width="120" height="40" as="alternateBounds" />
          </mxGeometry>
        </mxCell>
        <mxCell id="IJf_oxvMi_yI0q4zsniB-96" value="Trip" style="text;strokeColor=none;fillColor=none;html=1;fontSize=24;fontStyle=1;verticalAlign=middle;align=center;" parent="WIyWlLk6GJQsqaUBKTNV-1" vertex="1">
          <mxGeometry x="120" y="1080" width="100" height="40" as="geometry" />
        </mxCell>
        <mxCell id="IuTOKo6c5WQzJCZQz2z7-18" value="" style="endArrow=classic;html=1;rounded=0;exitX=0.87;exitY=-0.005;exitDx=0;exitDy=0;exitPerimeter=0;" parent="WIyWlLk6GJQsqaUBKTNV-1" source="IJf_oxvMi_yI0q4zsniB-62" edge="1">
          <mxGeometry width="50" height="50" relative="1" as="geometry">
            <mxPoint x="580" y="950" as="sourcePoint" />
            <mxPoint x="140" y="1180" as="targetPoint" />
            <Array as="points">
              <mxPoint x="840" y="1260" />
              <mxPoint x="140" y="1260" />
            </Array>
          </mxGeometry>
        </mxCell>
        <mxCell id="IuTOKo6c5WQzJCZQz2z7-20" value="" style="endArrow=classic;html=1;rounded=0;exitX=0.878;exitY=-0.035;exitDx=0;exitDy=0;exitPerimeter=0;" parent="WIyWlLk6GJQsqaUBKTNV-1" source="IJf_oxvMi_yI0q4zsniB-82" edge="1">
          <mxGeometry width="50" height="50" relative="1" as="geometry">
            <mxPoint x="1000" y="1580" as="sourcePoint" />
            <mxPoint x="150" y="1180" as="targetPoint" />
            <Array as="points">
              <mxPoint x="1000" y="1250" />
              <mxPoint x="150" y="1250" />
            </Array>
          </mxGeometry>
        </mxCell>
        <mxCell id="IuTOKo6c5WQzJCZQz2z7-22" value="" style="endArrow=classic;html=1;rounded=0;exitX=0.872;exitY=1.005;exitDx=0;exitDy=0;exitPerimeter=0;" parent="WIyWlLk6GJQsqaUBKTNV-1" source="IJf_oxvMi_yI0q4zsniB-91" edge="1">
          <mxGeometry width="50" height="50" relative="1" as="geometry">
            <mxPoint x="460" y="1710" as="sourcePoint" />
            <mxPoint x="600" y="1640" as="targetPoint" />
            <Array as="points">
              <mxPoint x="450" y="1660" />
              <mxPoint x="600" y="1660" />
            </Array>
          </mxGeometry>
        </mxCell>
        <mxCell id="IuTOKo6c5WQzJCZQz2z7-30" value="Participates_On" style="text;strokeColor=none;fillColor=none;html=1;fontSize=24;fontStyle=1;verticalAlign=middle;align=center;" parent="WIyWlLk6GJQsqaUBKTNV-1" vertex="1">
          <mxGeometry x="655" y="1300" width="100" height="40" as="geometry" />
        </mxCell>
        <mxCell id="IuTOKo6c5WQzJCZQz2z7-31" value="" style="shape=table;html=1;whiteSpace=wrap;startSize=0;container=1;collapsible=0;childLayout=tableLayout;columnLines=0;rowLines=0;fontSize=16;strokeColor=default;" parent="WIyWlLk6GJQsqaUBKTNV-1" vertex="1">
          <mxGeometry x="590" y="1340" width="230" height="40" as="geometry" />
        </mxCell>
        <mxCell id="IuTOKo6c5WQzJCZQz2z7-32" value="" style="shape=tableRow;horizontal=0;startSize=0;swimlaneHead=0;swimlaneBody=0;top=0;left=0;bottom=0;right=0;collapsible=0;dropTarget=0;fillColor=none;points=[[0,0.5],[1,0.5]];portConstraint=eastwest;fontSize=16;strokeColor=inherit;" parent="IuTOKo6c5WQzJCZQz2z7-31" vertex="1">
          <mxGeometry width="230" height="40" as="geometry" />
        </mxCell>
        <mxCell id="IuTOKo6c5WQzJCZQz2z7-33" value="&lt;u&gt;PID&lt;/u&gt;" style="shape=partialRectangle;html=1;whiteSpace=wrap;connectable=0;fillColor=none;top=0;left=0;bottom=0;right=0;overflow=hidden;fontSize=12;strokeColor=inherit;" parent="IuTOKo6c5WQzJCZQz2z7-32" vertex="1">
          <mxGeometry width="110" height="40" as="geometry">
            <mxRectangle width="110" height="40" as="alternateBounds" />
          </mxGeometry>
        </mxCell>
        <mxCell id="IuTOKo6c5WQzJCZQz2z7-34" value="&lt;u&gt;TID&lt;/u&gt;" style="shape=partialRectangle;html=1;whiteSpace=wrap;connectable=0;fillColor=none;top=0;left=0;bottom=0;right=0;overflow=hidden;fontSize=12;strokeColor=inherit;" parent="IuTOKo6c5WQzJCZQz2z7-32" vertex="1">
          <mxGeometry x="110" width="120" height="40" as="geometry">
            <mxRectangle width="120" height="40" as="alternateBounds" />
          </mxGeometry>
        </mxCell>
        <mxCell id="IuTOKo6c5WQzJCZQz2z7-37" value="" style="endArrow=classic;html=1;rounded=0;exitX=0.22;exitY=1.005;exitDx=0;exitDy=0;exitPerimeter=0;" parent="WIyWlLk6GJQsqaUBKTNV-1" edge="1" source="IuTOKo6c5WQzJCZQz2z7-32">
          <mxGeometry width="50" height="50" relative="1" as="geometry">
            <mxPoint x="350" y="1610" as="sourcePoint" />
            <mxPoint x="190" y="1380" as="targetPoint" />
            <Array as="points">
              <mxPoint x="640" y="1410" />
              <mxPoint x="190" y="1410" />
            </Array>
          </mxGeometry>
        </mxCell>
        <mxCell id="IuTOKo6c5WQzJCZQz2z7-38" value="" style="endArrow=classic;html=1;rounded=0;exitX=0.749;exitY=1.045;exitDx=0;exitDy=0;exitPerimeter=0;" parent="WIyWlLk6GJQsqaUBKTNV-1" edge="1" source="IuTOKo6c5WQzJCZQz2z7-32">
          <mxGeometry width="50" height="50" relative="1" as="geometry">
            <mxPoint x="270.65999999999985" y="1440.2" as="sourcePoint" />
            <mxPoint x="130" y="1180" as="targetPoint" />
            <Array as="points">
              <mxPoint x="760" y="1420" />
              <mxPoint x="130" y="1420" />
              <mxPoint x="130" y="1270" />
            </Array>
          </mxGeometry>
        </mxCell>
        <mxCell id="IJf_oxvMi_yI0q4zsniB-61" value="" style="shape=table;html=1;whiteSpace=wrap;startSize=0;container=1;collapsible=0;childLayout=tableLayout;columnLines=0;rowLines=0;fontSize=16;strokeColor=default;" parent="WIyWlLk6GJQsqaUBKTNV-1" vertex="1">
          <mxGeometry x="40" y="1480" width="921" height="40" as="geometry" />
        </mxCell>
        <mxCell id="IuTOKo6c5WQzJCZQz2z7-1" style="edgeStyle=orthogonalEdgeStyle;rounded=0;orthogonalLoop=1;jettySize=auto;html=1;exitX=1;exitY=0.5;exitDx=0;exitDy=0;" parent="IJf_oxvMi_yI0q4zsniB-61" source="IJf_oxvMi_yI0q4zsniB-62" target="IJf_oxvMi_yI0q4zsniB-62" edge="1">
          <mxGeometry relative="1" as="geometry" />
        </mxCell>
        <mxCell id="IJf_oxvMi_yI0q4zsniB-62" value="" style="shape=tableRow;horizontal=0;startSize=0;swimlaneHead=0;swimlaneBody=0;top=0;left=0;bottom=0;right=0;collapsible=0;dropTarget=0;fillColor=none;points=[[0,0.5],[1,0.5]];portConstraint=eastwest;fontSize=16;strokeColor=inherit;" parent="IJf_oxvMi_yI0q4zsniB-61" vertex="1">
          <mxGeometry width="921" height="40" as="geometry" />
        </mxCell>
        <mxCell id="IJf_oxvMi_yI0q4zsniB-63" value="&lt;u&gt;Name&lt;/u&gt;" style="shape=partialRectangle;html=1;whiteSpace=wrap;connectable=0;fillColor=none;top=0;left=0;bottom=0;right=0;overflow=hidden;fontSize=12;strokeColor=inherit;" parent="IJf_oxvMi_yI0q4zsniB-62" vertex="1">
          <mxGeometry width="60" height="40" as="geometry">
            <mxRectangle width="60" height="40" as="alternateBounds" />
          </mxGeometry>
        </mxCell>
        <mxCell id="IJf_oxvMi_yI0q4zsniB-64" value="&lt;u&gt;Serial_Number&lt;/u&gt;" style="shape=partialRectangle;html=1;whiteSpace=wrap;connectable=0;fillColor=none;top=0;left=0;bottom=0;right=0;overflow=hidden;fontSize=12;strokeColor=inherit;" parent="IJf_oxvMi_yI0q4zsniB-62" vertex="1">
          <mxGeometry x="60" width="110" height="40" as="geometry">
            <mxRectangle width="110" height="40" as="alternateBounds" />
          </mxGeometry>
        </mxCell>
        <mxCell id="IJf_oxvMi_yI0q4zsniB-65" value="Min_Crew" style="shape=partialRectangle;html=1;whiteSpace=wrap;connectable=0;fillColor=none;top=0;left=0;bottom=0;right=0;overflow=hidden;fontSize=12;strokeColor=inherit;" parent="IJf_oxvMi_yI0q4zsniB-62" vertex="1">
          <mxGeometry x="170" width="91" height="40" as="geometry">
            <mxRectangle width="91" height="40" as="alternateBounds" />
          </mxGeometry>
        </mxCell>
        <mxCell id="IJf_oxvMi_yI0q4zsniB-73" value="Max_Pass_Cap" style="shape=partialRectangle;html=1;whiteSpace=wrap;connectable=0;fillColor=none;top=0;left=0;bottom=0;right=0;overflow=hidden;fontSize=12;strokeColor=inherit;" parent="IJf_oxvMi_yI0q4zsniB-62" vertex="1">
          <mxGeometry x="261" width="119" height="40" as="geometry">
            <mxRectangle width="119" height="40" as="alternateBounds" />
          </mxGeometry>
        </mxCell>
        <mxCell id="IJf_oxvMi_yI0q4zsniB-74" value="Last_Service_Date" style="shape=partialRectangle;html=1;whiteSpace=wrap;connectable=0;fillColor=none;top=0;left=0;bottom=0;right=0;overflow=hidden;fontSize=12;strokeColor=inherit;" parent="IJf_oxvMi_yI0q4zsniB-62" vertex="1">
          <mxGeometry x="380" width="120" height="40" as="geometry">
            <mxRectangle width="120" height="40" as="alternateBounds" />
          </mxGeometry>
        </mxCell>
        <mxCell id="IJf_oxvMi_yI0q4zsniB-75" value="Next_Service_Date" style="shape=partialRectangle;html=1;whiteSpace=wrap;connectable=0;fillColor=none;top=0;left=0;bottom=0;right=0;overflow=hidden;fontSize=12;strokeColor=inherit;" parent="IJf_oxvMi_yI0q4zsniB-62" vertex="1">
          <mxGeometry x="500" width="210" height="40" as="geometry">
            <mxRectangle width="210" height="40" as="alternateBounds" />
          </mxGeometry>
        </mxCell>
        <mxCell id="IuTOKo6c5WQzJCZQz2z7-16" value="TID" style="shape=partialRectangle;html=1;whiteSpace=wrap;connectable=0;fillColor=none;top=0;left=0;bottom=0;right=0;overflow=hidden;fontSize=12;strokeColor=inherit;" parent="IJf_oxvMi_yI0q4zsniB-62" vertex="1">
          <mxGeometry x="710" width="211" height="40" as="geometry">
            <mxRectangle width="211" height="40" as="alternateBounds" />
          </mxGeometry>
        </mxCell>
        <mxCell id="IJf_oxvMi_yI0q4zsniB-97" value="" style="shape=table;html=1;whiteSpace=wrap;startSize=0;container=1;collapsible=0;childLayout=tableLayout;columnLines=0;rowLines=0;fontSize=16;strokeColor=default;" parent="WIyWlLk6GJQsqaUBKTNV-1" vertex="1">
          <mxGeometry x="90" y="1120" width="470" height="40" as="geometry" />
        </mxCell>
        <mxCell id="IJf_oxvMi_yI0q4zsniB-98" value="" style="shape=tableRow;horizontal=0;startSize=0;swimlaneHead=0;swimlaneBody=0;top=0;left=0;bottom=0;right=0;collapsible=0;dropTarget=0;fillColor=none;points=[[0,0.5],[1,0.5]];portConstraint=eastwest;fontSize=16;strokeColor=inherit;" parent="IJf_oxvMi_yI0q4zsniB-97" vertex="1">
          <mxGeometry width="470" height="40" as="geometry" />
        </mxCell>
        <mxCell id="IJf_oxvMi_yI0q4zsniB-99" value="&lt;u&gt;ID&lt;/u&gt;" style="shape=partialRectangle;html=1;whiteSpace=wrap;connectable=0;fillColor=none;top=0;left=0;bottom=0;right=0;overflow=hidden;fontSize=12;strokeColor=inherit;" parent="IJf_oxvMi_yI0q4zsniB-98" vertex="1">
          <mxGeometry width="110" height="40" as="geometry">
            <mxRectangle width="110" height="40" as="alternateBounds" />
          </mxGeometry>
        </mxCell>
        <mxCell id="IJf_oxvMi_yI0q4zsniB-100" value="departure_date" style="shape=partialRectangle;html=1;whiteSpace=wrap;connectable=0;fillColor=none;top=0;left=0;bottom=0;right=0;overflow=hidden;fontSize=12;strokeColor=inherit;" parent="IJf_oxvMi_yI0q4zsniB-98" vertex="1">
          <mxGeometry x="110" width="120" height="40" as="geometry">
            <mxRectangle width="120" height="40" as="alternateBounds" />
          </mxGeometry>
        </mxCell>
        <mxCell id="IuTOKo6c5WQzJCZQz2z7-24" value="SFrom" style="shape=partialRectangle;html=1;whiteSpace=wrap;connectable=0;fillColor=none;top=0;left=0;bottom=0;right=0;overflow=hidden;fontSize=12;strokeColor=inherit;" parent="IJf_oxvMi_yI0q4zsniB-98" vertex="1">
          <mxGeometry x="230" width="120" height="40" as="geometry">
            <mxRectangle width="120" height="40" as="alternateBounds" />
          </mxGeometry>
        </mxCell>
        <mxCell id="IuTOKo6c5WQzJCZQz2z7-25" value="Endsat" style="shape=partialRectangle;html=1;whiteSpace=wrap;connectable=0;fillColor=none;top=0;left=0;bottom=0;right=0;overflow=hidden;fontSize=12;strokeColor=inherit;" parent="IJf_oxvMi_yI0q4zsniB-98" vertex="1">
          <mxGeometry x="350" width="120" height="40" as="geometry">
            <mxRectangle width="120" height="40" as="alternateBounds" />
          </mxGeometry>
        </mxCell>
        <mxCell id="IuTOKo6c5WQzJCZQz2z7-23" value="" style="endArrow=classic;html=1;rounded=0;exitX=0.618;exitY=1.055;exitDx=0;exitDy=0;exitPerimeter=0;" parent="IJf_oxvMi_yI0q4zsniB-97" source="IJf_oxvMi_yI0q4zsniB-98" edge="1">
          <mxGeometry width="50" height="50" relative="1" as="geometry">
            <mxPoint x="290" y="50" as="sourcePoint" />
            <mxPoint x="80" y="60" as="targetPoint" />
            <Array as="points">
              <mxPoint x="290" y="110" />
              <mxPoint x="220" y="110" />
              <mxPoint x="80" y="110" />
            </Array>
          </mxGeometry>
        </mxCell>
        <mxCell id="IuTOKo6c5WQzJCZQz2z7-26" value="" style="endArrow=classic;html=1;rounded=0;exitX=0.867;exitY=1.095;exitDx=0;exitDy=0;exitPerimeter=0;" parent="IJf_oxvMi_yI0q4zsniB-97" edge="1" source="IJf_oxvMi_yI0q4zsniB-98">
          <mxGeometry width="50" height="50" relative="1" as="geometry">
            <mxPoint x="420" y="70" as="sourcePoint" />
            <mxPoint x="70" y="60" as="targetPoint" />
            <Array as="points">
              <mxPoint x="407" y="120" />
              <mxPoint x="70" y="120" />
              <mxPoint x="70" y="100" />
            </Array>
          </mxGeometry>
        </mxCell>
      </root>
    </mxGraphModel>
  </diagram>
</mxfile>
